<svg id="connection" xmlns="http://www.w3.org/2000/svg" viewBox="0 0 27.37 27.37">
  <defs>
    <style>
      .cls-1 {
        fill: #fff;
      }
    </style>
  </defs>
  <g id="Gruppe_3" data-name="Gruppe 3">
    <g id="Gruppe_2" data-name="Gruppe 2">
      <circle id="Ellipse_4" data-name="Ellipse 4" class="cls-1" cx="1.069" cy="1.069" r="1.069" transform="translate(18.657 11.921)"/>
      <path id="Pfad_1" data-name="Pfad 1" class="cls-1" d="M26.3,23.094H16.709a3.223,3.223,0,0,0-1.954-1.954V19.3h6.092a4.282,4.282,0,0,0,4.276-4.275,1.069,1.069,0,0,0-1.069-1.069h0a1.069,1.069,0,0,0-1.069,1.069,2.141,2.141,0,0,1-2.138,2.138l-14.324,0a2.141,2.141,0,0,1-2.138-2.138V3.742a1.606,1.606,0,0,1,1.6-1.6H9.034a1.606,1.606,0,0,1,1.6,1.6v.052a1.069,1.069,0,0,0,1.069,1.069h9.14A2.138,2.138,0,0,1,22.986,7V7.11H7.644a1.069,1.069,0,1,0,0,2.138H22.985v.427a1.069,1.069,0,0,0,1.069,1.07h0a1.069,1.069,0,0,0,1.069-1.069V7a4.277,4.277,0,0,0-4.277-4.278H12.636A3.749,3.749,0,0,0,9.034,0H5.987A3.746,3.746,0,0,0,2.245,3.742V15.023A4.281,4.281,0,0,0,6.522,19.3h6.094v1.84a3.223,3.223,0,0,0-1.954,1.954H1.069a1.069,1.069,0,1,0,0,2.138h9.592a3.213,3.213,0,0,0,3.024,2.138,1.069,1.069,0,1,0,0-2.138,1.069,1.069,0,1,1,1.069-1.069,1.069,1.069,0,0,0,1.069,1.069H26.3a1.069,1.069,0,1,0,0-2.138Z"/>
      <circle id="Ellipse_5" data-name="Ellipse 5" class="cls-1" cx="1.069" cy="1.069" r="1.069" transform="translate(14.594 11.921)"/>
      <circle id="Ellipse_6" data-name="Ellipse 6" class="cls-1" cx="1.069" cy="1.069" r="1.069" transform="translate(10.585 11.921)"/>
      <circle id="Ellipse_7" data-name="Ellipse 7" class="cls-1" cx="1.069" cy="1.069" r="1.069" transform="translate(6.575 11.921)"/>
    </g>
  </g>
</svg>
