<svg id="logo_truck" xmlns="http://www.w3.org/2000/svg" viewBox="0 0 29.37 21.469">
  <defs>
    <style>
      .cls-1 {
        fill: #fff;
      }
    </style>
  </defs>
  <g id="Gruppe_2" data-name="Gruppe 2">
    <g id="Gruppe_1" data-name="Gruppe 1">
      <path id="Pfad_1" data-name="Pfad 1" class="cls-1" d="M23.777,75.731H21.928l.557-6.4c0-.012,0-.023,0-.034v0h0a.43.43,0,0,0-.259-.394l0,0-.029-.011-.011,0-.025-.006-.017,0-.022,0-.021,0H13.252a.43.43,0,0,0,0,.86h8.336l-.856,9.831v0l-.216,2.48H5.565l.25-2.581H8.662a.43.43,0,0,0,0-.86H5.9l.528-5.449h4.53a.43.43,0,1,0,0-.86H6.51l.248-2.562h4.772a.43.43,0,1,0,0-.86H6.367a.43.43,0,0,0-.42.339v0c0,.011,0,.022-.005.033s0,.007,0,.01v0l-.294,3.034H.43a.43.43,0,1,0,0,.86H5.562L5.034,78.6H3.5a.43.43,0,0,0,0,.86H4.951l-.288,2.967h0l-.445,4.588v0c0,.006,0,.012,0,.018s0,.016,0,.024h0c0,.011,0,.022,0,.033s0,.007,0,.01,0,.022.005.033v.01c0,.008,0,.016.006.024s0,.011,0,.017l0,0a.43.43,0,0,0,.1.168l0,0,.014.013a.427.427,0,0,0,.1.068l.023.011.007,0,.033.012h0l.039.01h.005l.038.006h0l.042,0H6.563a3.275,3.275,0,0,0,6.493,0h6.9a3.275,3.275,0,0,0,6.493,0h1.917l.042,0h.007l.033-.005.014,0,.025-.006.017-.006.021-.008.017-.008.019-.009.017-.009.018-.011.016-.011.017-.013.014-.011.017-.016.012-.011.017-.019.009-.01.018-.024.006-.008c.007-.011.014-.021.02-.032v0c.006-.012.012-.024.018-.037l0-.011c0-.009.007-.018.01-.027l0-.018.006-.022c0-.006,0-.013,0-.02s0-.011,0-.017c.018-.146.355-2.849.506-4.6v-.005c.043-.5.071-.928.071-1.188A5.6,5.6,0,0,0,23.777,75.731Zm-1.924.861h1.76l-.225,2.581h-1.76ZM9.81,89.476a2.415,2.415,0,1,1,2.415-2.415A2.418,2.418,0,0,1,9.81,89.476Zm13.394,0a2.415,2.415,0,1,1,2.415-2.415A2.418,2.418,0,0,1,23.2,89.476Zm4.782-2.846H26.45a3.275,3.275,0,0,0-6.493,0h-6.9a3.275,3.275,0,0,0-6.493,0H5.121L5.482,82.9H20.91l.043,0h.008l.033-.005.014,0,.026-.007.017-.006.021-.008.018-.008.019-.009.017-.01.017-.011.016-.011.017-.012.015-.012.016-.015.013-.013.015-.017.011-.014.014-.018.01-.014.012-.02.009-.015.01-.021.007-.017.008-.021.006-.019.005-.02c0-.007,0-.014,0-.021s0-.014,0-.021,0-.014,0-.021v0l.216-2.475h2.224a3.082,3.082,0,0,1,2.542,1.406A3.53,3.53,0,0,0,28.4,82.864C28.279,84.187,28.076,85.886,27.986,86.63ZM28.477,82a2.815,2.815,0,0,1-1.509-1.127A4.04,4.04,0,0,0,24.25,79.2l.223-2.555a4.74,4.74,0,0,1,4.037,4.681C28.51,81.485,28.5,81.72,28.477,82Z" transform="translate(0 -68.867)"/>
    </g>
  </g>
  <g id="Gruppe_4" data-name="Gruppe 4" transform="translate(8.232 16.616)">
    <g id="Gruppe_3" data-name="Gruppe 3">
      <path id="Pfad_2" data-name="Pfad 2" class="cls-1" d="M145.085,358.524a1.578,1.578,0,1,0,1.578,1.578A1.579,1.579,0,0,0,145.085,358.524Zm0,2.295a.717.717,0,1,1,.717-.717A.718.718,0,0,1,145.085,360.819Z" transform="translate(-143.508 -358.524)"/>
    </g>
  </g>
  <g id="Gruppe_6" data-name="Gruppe 6" transform="translate(21.626 16.616)">
    <g id="Gruppe_5" data-name="Gruppe 5">
      <path id="Pfad_3" data-name="Pfad 3" class="cls-1" d="M378.574,358.524a1.578,1.578,0,1,0,1.578,1.578A1.579,1.579,0,0,0,378.574,358.524Zm0,2.295a.717.717,0,1,1,.717-.717A.718.718,0,0,1,378.574,360.819Z" transform="translate(-376.996 -358.524)"/>
    </g>
  </g>
  <g id="Gruppe_8" data-name="Gruppe 8" transform="translate(1.539 6.864)">
    <g id="Gruppe_7" data-name="Gruppe 7">
      <path id="Pfad_4" data-name="Pfad 4" class="cls-1" d="M29.368,188.527h-2.1a.43.43,0,1,0,0,.86h2.1a.43.43,0,1,0,0-.86Z" transform="translate(-26.834 -188.527)"/>
    </g>
  </g>
</svg>
