<svg xmlns="http://www.w3.org/2000/svg" viewBox="0 0 27.371 27.37">
  <defs>
    <style>
      .cls-1 {
        fill: #fff;
      }
    </style>
  </defs>
  <g id="keys" transform="translate(0 -0.005)">
    <g id="Gruppe_4" data-name="Gruppe 4" transform="translate(0 0.005)">
      <path id="Pfad_2" data-name="Pfad 2" class="cls-1" d="M25.349,4.383a12.038,12.038,0,0,0-3.567-.962A4.252,4.252,0,0,0,17.619.005h-.031a4.253,4.253,0,0,0-4.048,2.966c-.1-.042-.206-.084-.311-.124a3.394,3.394,0,0,0-3.6.763L6.607,6.618a3.381,3.381,0,0,0-.7,3.748q.131.3.275.584L.313,16.817A1.069,1.069,0,0,0,0,17.573v3.869a1.069,1.069,0,0,0,1.069,1.069H4.913a1.069,1.069,0,0,0,1.069-1.069V20H7.377a1.069,1.069,0,0,0,1.069-1.069V16.577a1.069,1.069,0,0,0-2.138,0V17.86H4.913a1.069,1.069,0,0,0-1.069,1.069v1.443H2.138V18.016l6.091-6.093a1.069,1.069,0,0,0,.271-.458l.011-.038a1.069,1.069,0,0,0-.1-.828,12.332,12.332,0,0,1-.557-1.1,1.23,1.23,0,0,1,.259-1.363l3.022-3.008a1.252,1.252,0,0,1,1.328-.281,9.686,9.686,0,0,1,2.206,1.173A3.384,3.384,0,0,0,14.327,7.5v.513l-.955-.955A1.069,1.069,0,0,0,11.86,8.566l1.924,1.924a1.064,1.064,0,0,0,.542.291v1a3.389,3.389,0,0,0,.595,1.92l-.648.645a1.25,1.25,0,0,1-1.367.266,10.338,10.338,0,0,1-1.388-.707A1.069,1.069,0,0,0,10.4,15.724a12.5,12.5,0,0,0,1.686.859,3.385,3.385,0,0,0,3.7-.725l.864-.86c.188.07.378.137.568.2v8.439a1.069,1.069,0,0,0,.314.757L20.2,27.063a1.069,1.069,0,0,0,.755.313h.005a1.069,1.069,0,0,0,.758-.32l2.619-2.669a1.069,1.069,0,0,0,0-1.5l-.916-.938L24.386,21a1.069,1.069,0,0,0,0-1.523l-1.717-1.686a1.069,1.069,0,0,0-1.5,1.525l.943.926-.946.935a1.069,1.069,0,0,0-.013,1.507l.926.949-1.131,1.152-1.6-1.593V14.439a1.069,1.069,0,0,0-.307-.749l-.054-.055a1.069,1.069,0,0,0-.488-.284,12.254,12.254,0,0,1-1.256-.409,1.242,1.242,0,0,1-.784-1.161V7.5a1.269,1.269,0,0,1,.753-1.149A9.769,9.769,0,0,1,19.726,5.6V7.275h-.214a1.069,1.069,0,0,0,0,2.138h2.673a1.069,1.069,0,1,0,0-2.138h-.321V5.582a10.052,10.052,0,0,1,2.627.759,1.241,1.241,0,0,1,.741,1.144v4.334a1.284,1.284,0,0,1-.792,1.166A9.674,9.674,0,0,1,23,13.453a1.069,1.069,0,1,0,.5,2.079,11.81,11.81,0,0,0,1.754-.571,3.4,3.4,0,0,0,2.112-3.139V7.488A3.378,3.378,0,0,0,25.349,4.383ZM16.343,4.4c-.055.025-.108.051-.161.078q-.329-.253-.685-.484a2.11,2.11,0,0,1,2.091-1.849h.031A2.11,2.11,0,0,1,19.571,3.46,11.855,11.855,0,0,0,16.343,4.4Z" transform="translate(0 -0.005)"/>
    </g>
  </g>
</svg>
