<svg xmlns="http://www.w3.org/2000/svg" viewBox="0 0 29.736 27.486">
  <defs>
    <style>
      .cls-1 {
        fill: #fff;
      }
    </style>
  </defs>
  <g id="transfer" transform="translate(-40 -21.4)">
    <g id="Gruppe_5" data-name="Gruppe 5" transform="translate(40 21.4)">
      <path id="Pfad_3" data-name="Pfad 3" class="cls-1" d="M24.184,25.579A8.613,8.613,0,0,0,8.224,22.717a4.934,4.934,0,0,0-.9-.086A4.721,4.721,0,0,0,2.6,27.346a5.153,5.153,0,0,0,.1.978A6.56,6.56,0,0,0,0,33.613a7.014,7.014,0,0,0,1.779,4.641,6.351,6.351,0,0,0,4.4,2.214H11.49a.825.825,0,0,0,0-1.651H6.255a5.207,5.207,0,0,1-4.6-5.21,4.9,4.9,0,0,1,2.428-4.219.832.832,0,0,0,.361-1,3,3,0,0,1-.183-1.052A3.069,3.069,0,0,1,7.319,24.27a3.011,3.011,0,0,1,1.046.183A.829.829,0,0,0,9.4,24.032a6.962,6.962,0,0,1,13.226,2.293.825.825,0,0,0,.685.734,5.951,5.951,0,0,1-.563,11.752H18.24a.825.825,0,1,0,0,1.651h4.6a7.316,7.316,0,0,0,4.9-2.421,7.61,7.61,0,0,0-3.559-12.462Z" transform="translate(0 -18.4)"/>
      <path id="Pfad_4" data-name="Pfad 4" class="cls-1" d="M168.374,191.184a.823.823,0,0,0,0-1.168L164,185.645a.835.835,0,0,0-.581-.245.81.81,0,0,0-.581.245l-4.372,4.372a.829.829,0,0,0,.581,1.412.805.805,0,0,0,.581-.245l2.966-2.966v13.63a.825.825,0,1,0,1.651,0v-13.63l2.966,2.966A.816.816,0,0,0,168.374,191.184Z" transform="translate(-148.55 -175.188)"/>
    </g>
  </g>
</svg>
